<?xml version="1.0" encoding="UTF-8" standalone="no"?>
<!DOCTYPE svg PUBLIC "-//W3C//DTD SVG 1.1//EN" "http://www.w3.org/Graphics/SVG/1.1/DTD/svg11.dtd">
<svg width="100%" height="100%" viewBox="0 0 1024 1024" version="1.1" xmlns="http://www.w3.org/2000/svg" xmlns:xlink="http://www.w3.org/1999/xlink" xml:space="preserve" xmlns:serif="http://www.serif.com/" style="fill-rule:evenodd;clip-rule:evenodd;stroke-linejoin:round;stroke-miterlimit:2;">
    <g transform="matrix(1,0,0,1,-6.25042,0)">
        <g id="ArtBoard1" transform="matrix(1,0,0,1,6.25042,0)">
            <rect x="0" y="0" width="1024" height="1024" style="fill:none;"/>
            <g transform="matrix(1.72114,0,0,1.72114,-184.497,-456.213)">
                <path d="M517.883,574.258C586.864,595.067 649.566,638.456 674.174,731.53C631.915,731.53 620.184,732.109 579.883,732.109C570.392,696.209 554.497,669.253 534.422,648.974L535.88,646.573L535.871,646.578L535.972,646.419C540.671,638.535 543.388,629.254 543.388,619.367C543.388,600.106 533.142,583.338 517.883,574.258ZM498.387,681.34C519.344,682.282 535.366,687.56 535.366,693.929C535.366,700.984 515.817,706.669 491.663,706.669C467.53,706.669 447.96,700.984 447.96,693.929C447.96,687.567 463.967,682.293 484.879,681.342L459.391,639.253C455.937,633.457 453.938,626.634 453.938,619.367C453.938,610.66 456.792,602.638 461.598,596.206L462.006,595.67L462.529,595.01L462.959,594.489L463.398,593.976L464.18,593.105L464.878,592.371L465.704,591.55L466.443,590.857L467.199,590.185L468.09,589.437L468.883,588.808L469.814,588.114L470.644,587.531L471.488,586.971L472.476,586.357L473.354,585.845L474.245,585.358L475.285,584.828L476.207,584.392L477.279,583.922L478.229,583.54L479.191,583.183L480.309,582.806L481.296,582.506L482.294,582.232L483.452,581.952L484.473,581.738L485.654,581.527L486.696,581.373L487.746,581.249L488.961,581.143L490.179,581.076L491.533,581.049L492.355,581.056L492.787,581.066C493.086,581.075 493.384,581.088 493.679,581.104C494.081,581.126 494.482,581.154 494.879,581.188L495.726,581.271L496.792,581.403L497.848,581.565C498.541,581.681 499.228,581.817 499.907,581.971C500.103,582.015 500.298,582.061 500.493,582.108C500.609,582.137 500.725,582.165 500.843,582.195C501.411,582.339 501.973,582.497 502.529,582.666L502.819,582.756C503.129,582.853 503.437,582.954 503.745,583.06C504.622,583.36 505.485,583.693 506.333,584.057L507.259,584.469L507.936,584.789L508.956,585.304L509.407,585.544L510.174,585.972C510.45,586.129 510.723,586.29 510.995,586.456C511.142,586.544 511.288,586.634 511.434,586.726C511.949,587.048 512.456,587.382 512.953,587.728L513.065,587.806C514.182,588.588 515.255,589.43 516.28,590.326L516.759,590.752C517.114,591.074 517.464,591.402 517.808,591.737L518.478,592.408L519.207,593.176C519.388,593.373 519.567,593.571 519.745,593.773C520.304,594.404 520.842,595.054 521.358,595.722L521.86,596.386L522.359,597.078C522.42,597.164 522.48,597.25 522.54,597.337C523.923,599.333 525.123,601.469 526.115,603.721L526.39,604.361L526.591,604.85C526.702,605.126 526.81,605.404 526.915,605.683C526.967,605.82 527.017,605.957 527.067,606.094L527.284,606.706C527.405,607.058 527.521,607.412 527.632,607.767L527.676,607.909C527.842,608.449 527.997,608.995 528.14,609.545C528.186,609.722 528.23,609.899 528.274,610.077L528.516,611.131C528.551,611.293 528.585,611.457 528.618,611.62L528.731,612.2C528.782,612.475 528.83,612.751 528.876,613.028L529.025,614.022C529.138,614.843 529.225,615.672 529.285,616.508L529.337,617.355L529.375,618.324C529.382,618.583 529.386,618.845 529.388,619.107L529.388,619.367C529.388,621.302 529.247,623.205 528.975,625.066C528.928,625.388 528.877,625.708 528.822,626.027C528.676,626.878 528.502,627.72 528.302,628.552C528.151,629.18 527.984,629.803 527.802,630.419L527.594,631.105C527.567,631.189 527.54,631.273 527.513,631.357C527.377,631.781 527.233,632.202 527.082,632.62C527.039,632.74 526.995,632.859 526.951,632.978C526.799,633.387 526.64,633.793 526.474,634.195L526.306,634.598C526.164,634.932 526.018,635.263 525.868,635.591C525.601,636.173 525.321,636.746 525.027,637.311L524.715,637.899C524.636,638.046 524.556,638.192 524.474,638.337C524.398,638.473 524.321,638.609 524.243,638.744L523.929,639.28L498.387,681.34ZM502.589,632.756C499.624,635.256 495.807,636.763 491.623,636.763L491.545,636.763L491.465,636.763C481.831,636.763 474.01,628.942 474.01,619.308C474.01,609.675 481.831,601.854 491.465,601.854C501.098,601.854 508.92,609.675 508.92,619.308C508.92,624.716 506.456,629.552 502.589,632.756ZM240.129,556.771C242.852,543.997 254.035,534.446 267.39,534.446C281.349,534.446 292.894,544.79 295,558.344L295.07,558.821L295.224,560.168L295.311,561.439L295.343,562.718L295.339,563.306C295.314,564.787 295.178,566.243 294.938,567.662C294.915,567.795 294.892,567.928 294.867,568.06C294.771,568.587 294.66,569.11 294.535,569.626C294.511,569.726 294.486,569.826 294.461,569.925C294.241,570.796 293.981,571.65 293.684,572.487C293.644,572.599 293.603,572.712 293.562,572.823C293.414,573.224 293.257,573.621 293.091,574.013C292.952,574.345 292.806,574.674 292.654,574.999L292.338,575.654L291.942,576.42C291.741,576.794 291.532,577.164 291.315,577.528L272.331,608.789C287.875,609.478 299.768,613.389 299.768,618.11C299.768,623.332 285.298,627.54 267.42,627.54C249.556,627.54 235.071,623.332 235.071,618.11C235.071,613.394 246.953,609.486 262.464,608.791L243.532,577.528L243.328,577.18C243.194,576.948 243.063,576.714 242.935,576.477L242.59,575.816C242.518,575.675 242.447,575.533 242.378,575.39C242.32,575.271 242.264,575.152 242.207,575.032C242.071,574.74 241.938,574.446 241.811,574.148C241.764,574.038 241.717,573.927 241.672,573.816C241.403,573.165 241.157,572.502 240.935,571.826L240.912,571.758C240.779,571.349 240.654,570.935 240.539,570.518C240.488,570.334 240.439,570.149 240.391,569.964C240.179,569.13 240.002,568.282 239.863,567.421L239.798,566.995L239.676,566.043L239.584,565.081C239.551,564.65 239.526,564.217 239.512,563.781L239.503,563.47L239.498,562.444L239.532,561.353L239.606,560.273L239.719,559.206L239.87,558.152L239.991,557.458L240.129,556.771ZM303.651,551.43C310.303,551.723 317.038,552.044 323.788,552.421C366.945,554.827 429.264,553.826 490.037,567.073C469.097,567.712 451.205,580.992 443.707,599.71C395.541,587.014 342.938,586.432 298.362,585.189L299.838,582.758L299.832,582.762L299.905,582.647C303.351,576.865 305.343,570.06 305.343,562.81C305.343,558.844 304.751,555.023 303.651,551.43ZM316.405,436.125C306.588,446.509 288.037,460.125 256.035,477.979C163.845,529.411 180.169,542.66 232.561,547.665C230.589,552.308 229.496,557.426 229.496,562.81C229.496,569.163 231.032,575.176 233.731,580.458C152.617,568.325 107.477,531.369 227.111,470.893C350.032,408.756 295.338,403.303 279.222,402.929L275.305,402.929C275.305,402.929 276.844,402.873 279.222,402.929L296.13,402.929C296.13,402.929 302.336,403.164 309.068,404.842C308.018,407.68 307.443,410.755 307.443,413.969C307.443,418.886 308.799,423.502 311.136,427.424L316.405,436.125ZM280.035,561.616C280.08,562.053 280.104,562.497 280.104,562.946C280.104,568.318 276.772,572.918 272.063,574.79C270.642,575.358 269.095,575.675 267.472,575.685L267.39,575.686L267.364,575.686C260.333,575.686 254.625,569.977 254.625,562.946C254.625,561.369 254.912,559.857 255.438,558.462C257.203,553.495 261.902,549.926 267.39,549.926L267.472,549.926C274.09,549.969 279.447,555.104 280.035,561.616ZM413.224,531.461L394.357,500.306C391.801,496.017 390.321,490.966 390.321,485.587C390.321,469.906 402.826,457.224 418.215,457.224C433.672,457.224 446.169,469.906 446.169,485.587C446.169,490.966 444.696,496.017 442.14,500.306L423.222,531.459C438.734,532.156 450.594,536.063 450.594,540.777C450.594,545.999 436.123,550.207 418.245,550.207C400.381,550.207 385.896,545.999 385.896,540.777C385.896,536.068 397.744,532.164 413.224,531.461ZM158.682,469.22L142.45,442.416C140.251,438.725 138.978,434.38 138.978,429.753C138.978,416.262 149.736,405.351 162.976,405.351C176.274,405.351 187.026,416.262 187.026,429.753C187.026,434.38 185.759,438.725 183.56,442.416L167.284,469.218C180.63,469.818 190.833,473.179 190.833,477.235C190.833,481.728 178.383,485.348 163.002,485.348C147.633,485.348 135.171,481.728 135.171,477.235C135.171,473.183 145.364,469.825 158.682,469.22ZM418.215,472.704C425.271,472.704 430.914,478.493 430.914,485.587C430.914,492.675 425.271,498.464 418.215,498.464C411.227,498.464 405.516,492.675 405.516,485.587C405.516,478.493 411.227,472.704 418.215,472.704ZM162.976,418.668C169.046,418.668 173.901,423.649 173.901,429.753C173.901,435.85 169.046,440.831 162.976,440.831C156.964,440.831 152.051,435.85 152.051,429.753C152.051,423.649 156.964,418.668 162.976,418.668ZM329.396,447.924L315.431,424.864C313.539,421.689 312.443,417.951 312.443,413.969C312.443,402.362 321.699,392.975 333.09,392.975C344.531,392.975 353.781,402.362 353.781,413.969C353.781,417.951 352.692,421.689 350.799,424.864L336.796,447.923C348.278,448.439 357.057,451.331 357.057,454.82C357.057,458.686 346.346,461.8 333.112,461.8C319.89,461.8 309.168,458.686 309.168,454.82C309.168,451.334 317.938,448.445 329.396,447.924ZM333.151,423.5L333.09,423.5C330.858,423.5 328.801,422.702 327.185,421.373C325.001,419.611 323.603,416.912 323.603,413.89C323.603,408.587 327.909,404.281 333.213,404.281C338.516,404.281 342.822,408.587 342.822,413.89C342.822,419.194 338.516,423.5 333.213,423.5L333.151,423.5Z" style="fill:rgb(190,205,215);"/>
            </g>
        </g>
    </g>
</svg>
